<svg width="131" height="27" viewBox="0 0 131 27" fill="none" xmlns="http://www.w3.org/2000/svg">
<path d="M51.8989 5.79193C51.8989 5.34047 51.6751 4.97449 51.3989 4.97449C51.1228 4.97449 50.8989 5.34047 50.8989 5.79193V21.157C50.8989 21.6085 51.1228 21.9745 51.3989 21.9745C51.6751 21.9745 51.8989 21.6085 51.8989 21.157V5.79193Z" fill="white"/>
<path d="M60.1013 3.2533C59.988 3.52845 59.9314 3.77124 59.9314 3.98165C59.9314 4.19206 59.9961 4.29727 60.1256 4.29727C60.0932 4.52386 59.9152 4.63716 59.5915 4.63716C59.203 4.63716 59.0088 4.35392 59.0088 3.78742C59.0088 3.22093 59.3244 2.6868 59.9556 2.18505C60.6031 1.6833 61.4326 1.43242 62.4442 1.43242C63.4558 1.43242 64.2974 1.80874 64.9691 2.56136C65.6408 3.31399 66.1021 4.23252 66.353 5.31696C66.6039 6.40139 66.7293 7.64768 66.7293 9.05582C66.7293 11.9854 66.2033 15.3763 65.1512 19.2284C65.0865 19.4227 65.1512 19.5198 65.3454 19.5198C65.4911 19.5198 65.6368 19.455 65.7824 19.3256C67.4819 17.7717 69.0924 15.1173 70.6138 11.3623C72.1353 7.60721 72.896 4.5967 72.896 2.33072C72.896 1.32722 72.6775 0.825463 72.2405 0.825463C72.289 0.598865 72.4104 0.408684 72.6047 0.254922C72.7989 0.101159 73.0255 0.0242777 73.2845 0.0242777C73.9966 0.0242777 74.3527 0.631236 74.3527 1.84515C74.3527 3.59319 73.8105 5.95224 72.7261 8.92229C71.6416 11.8923 70.2982 14.5751 68.6958 16.9706C67.0935 19.366 65.6772 20.5638 64.4471 20.5638C63.6055 20.5638 63.1847 20.1591 63.1847 19.3498C63.6379 18.0064 64.0587 16.1653 64.4471 13.8265C64.8356 11.4877 65.0298 9.49283 65.0298 7.8419C65.0298 3.95737 64.0587 2.0151 62.1164 2.0151C61.1291 2.0151 60.4574 2.42783 60.1013 3.2533ZM74.9354 16.7278C74.9354 14.3323 75.1822 12.1958 75.6759 10.3183C76.1695 8.44077 76.7967 7.50201 77.5574 7.50201C77.9297 7.50201 78.1158 7.70433 78.1158 8.10897C77.954 8.52979 77.7517 9.08819 77.5089 9.78417C77.2661 10.4802 76.9464 11.7386 76.5499 13.5595C76.1533 15.3803 75.9551 17.0029 75.9551 18.4273C75.9551 18.6539 75.8337 18.7672 75.5909 18.7672C75.1539 18.7672 74.9354 18.0874 74.9354 16.7278ZM78.48 4.80711L78.1887 5.21984C77.8488 5.21984 77.6788 4.89613 77.6788 4.24871C77.6788 3.86026 77.784 3.45157 77.9945 3.02265C78.2049 2.59374 78.5043 2.37928 78.8928 2.37928C79.2165 2.37928 79.3783 2.56541 79.3783 2.93768C79.3783 3.30995 79.0789 3.93309 78.48 4.80711ZM81.6362 18.7914C80.3049 18.7914 79.6393 17.7475 79.6393 15.6595C79.6393 14.4132 79.9489 13.0456 80.568 11.5565C81.4217 9.46855 82.5466 8.04422 83.9426 7.2835C84.5415 6.95979 85.0999 6.79794 85.6179 6.79794C86.1358 6.79794 86.5425 6.91123 86.8378 7.13783C87.1413 7.36443 87.3335 7.59103 87.4145 7.81763L87.5541 8.13325C87.5095 8.4084 87.372 8.54598 87.1413 8.54598C86.8864 8.54598 86.7387 8.48528 86.6982 8.36389C86.6578 8.2425 86.6112 8.13729 86.5586 8.04827C86.5141 7.95925 86.4029 7.83786 86.2248 7.6841C86.0427 7.53033 85.8404 7.45345 85.6179 7.45345C84.5658 7.45345 83.6108 8.40031 82.753 10.294C81.7778 12.4791 81.2902 14.5346 81.2902 16.4607C81.2902 17.4319 81.4845 17.9174 81.8729 17.9174C82.407 17.9174 83.2709 16.9827 84.4646 15.1133C85.6543 13.2438 86.7266 11.3299 87.6815 9.37144C88.1671 8.38412 88.6749 7.89046 89.205 7.89046C89.5489 7.89046 89.7209 8.08469 89.7209 8.47314C89.6562 8.58644 89.557 8.77257 89.4235 9.03154C89.298 9.29051 89.0654 10.031 88.7255 11.253C88.3856 12.475 88.0781 13.8751 87.8029 15.4532C87.5237 17.0313 87.289 18.2654 87.0988 19.1556C88.3249 19.366 89.0371 19.9002 89.2353 20.758C89.2677 20.9037 89.2839 21.1019 89.2839 21.3528C89.2839 21.6037 89.1847 21.8222 88.9865 22.0083C88.7963 22.1945 88.6284 22.2875 88.4827 22.2875C88.511 22.1742 88.5191 21.9759 88.507 21.6927C88.4908 21.4095 88.4382 21.1707 88.3492 20.9765C88.2601 20.7823 88.0942 20.5799 87.8515 20.3695C87.6087 20.1591 87.2931 20.0054 86.9046 19.9082C86.4029 21.8829 85.6806 23.5095 84.7378 24.7882C83.6695 26.2287 82.231 26.949 80.4223 26.949C79.091 26.949 78.2089 26.4796 77.7759 25.5408C77.7598 25.4923 77.7517 25.4518 77.7517 25.4194C77.7517 25.3223 77.8387 25.2535 78.0127 25.2131C78.1947 25.1726 78.3182 25.2333 78.3829 25.3951C78.6702 26.0588 79.35 26.3906 80.4223 26.3906C81.879 26.3906 83.012 25.7027 83.8213 24.3269C84.5456 23.113 85.1019 21.5996 85.4904 19.7868C82.581 19.8516 80.3333 20.9684 78.7471 23.1373C78.65 23.2829 78.4962 23.3072 78.2858 23.2101C78.1684 23.1454 78.1361 23.0644 78.1887 22.9673C78.8806 21.9153 79.8497 21.021 81.096 20.2846C82.3463 19.5481 83.8617 19.1475 85.6421 19.0828C85.8161 18.2735 85.9739 17.4197 86.1156 16.5214C86.2491 15.6231 86.3664 14.915 86.4676 14.3971C86.5647 13.8791 86.6295 13.5069 86.6618 13.2803H86.3948C84.2583 16.9544 82.6721 18.7914 81.6362 18.7914ZM104.865 6.31237C104.865 6.37711 104.796 6.41757 104.658 6.43376C104.521 6.44995 104.383 6.42567 104.245 6.36093C104.108 6.29618 104.039 6.20716 104.039 6.09386C104.039 4.44294 104.225 3.11167 104.597 2.10008C104.97 1.08848 105.455 0.58268 106.054 0.58268C106.216 0.58268 106.354 0.63933 106.467 0.752629C106.58 0.865928 106.637 1.01969 106.637 1.21392C105.892 1.95845 105.366 3.04289 105.059 4.46721C104.929 5.04989 104.865 5.66495 104.865 6.31237ZM103.408 1.16536C101.174 1.16536 99.1753 2.4683 97.4111 5.07417C95.8896 7.32397 94.8942 9.94603 94.4248 12.9404C94.263 13.9277 94.182 14.8341 94.182 15.6595C94.182 17.2457 94.4734 18.5203 95.0561 19.4834C95.6387 20.4464 96.4561 20.9279 97.5082 20.9279C98.9325 20.9279 100.146 20.1106 101.15 18.4758C101.83 17.3752 102.17 16.4041 102.17 15.5624C102.17 15.1902 102.073 15.004 101.878 15.004C101.975 14.6317 102.218 14.4456 102.607 14.4456C103.06 14.4456 103.286 14.7693 103.286 15.4167C103.286 16.6307 102.752 17.9255 101.684 19.3013C100.405 20.936 98.9082 21.7534 97.1926 21.7534C95.0399 21.7534 93.5832 20.6771 92.8225 18.5244C92.4502 17.5209 92.264 16.3838 92.264 15.1133C92.264 13.8427 92.4745 12.4224 92.8953 10.8524C93.7046 7.74479 95.0682 5.16319 96.9862 3.10763C98.9042 1.05206 101.029 0.0161856 103.359 0C103.683 0 103.918 0.105205 104.063 0.315618C104.209 0.52603 104.274 0.72835 104.258 0.922576V1.23819C104.128 1.18964 103.845 1.16536 103.408 1.16536ZM108.458 19.0099C106.467 19.0099 105.471 17.6423 105.471 14.9069C105.471 13.3693 105.86 11.8316 106.637 10.294C107.624 8.35175 108.798 7.38062 110.157 7.38062C110.351 7.38062 110.513 7.42917 110.643 7.52629C110.772 7.6234 110.861 7.76907 110.91 7.9633C109.89 7.9633 109.008 8.78067 108.263 10.4154C107.519 12.0502 107.147 13.6606 107.147 15.2468C107.147 17.1729 107.673 18.1359 108.725 18.1359C109.324 18.1359 109.947 17.6787 110.594 16.7642C111.242 15.8497 111.78 14.6479 112.209 13.1589C112.638 11.6698 112.852 10.1726 112.852 8.66737V8.37603C112.35 8.05232 111.938 7.64768 111.614 7.16211C111.29 6.67654 111.128 6.32046 111.128 6.09386C111.128 5.86727 111.229 5.65281 111.432 5.45049C111.634 5.24817 111.84 5.14701 112.051 5.14701C112.358 5.14701 112.658 5.42216 112.949 5.97247C113.241 6.52278 113.443 7.14593 113.556 7.8419C114.058 8.1818 114.499 8.35175 114.879 8.35175C115.26 8.35175 115.563 8.28701 115.79 8.15752C115.79 8.38412 115.709 8.58644 115.547 8.76448C115.385 8.94252 115.134 9.03154 114.794 9.03154C114.454 9.03154 114.066 8.95062 113.629 8.78876C113.613 10.3426 113.378 11.9045 112.925 13.4745C112.472 15.0445 111.84 16.3596 111.031 17.4197C110.222 18.4799 109.364 19.0099 108.458 19.0099ZM121.471 15.8295C121.471 13.8387 121.835 11.3218 122.563 8.27892C122.612 8.11706 122.563 8.04422 122.418 8.06041C122.304 8.0766 122.199 8.12515 122.102 8.20608C121.39 8.80495 120.605 9.91366 119.747 11.5322C118.889 13.1508 118.201 14.6277 117.683 15.963C117.166 17.2983 116.907 18.0793 116.907 18.3059C116.907 18.5001 116.785 18.5972 116.542 18.5972C116.057 18.5972 115.814 17.9579 115.814 16.6792C115.814 14.2514 116.057 12.0623 116.542 10.1119C117.028 8.16157 117.619 7.18639 118.315 7.18639C118.622 7.18639 118.776 7.35634 118.776 7.69623C118.031 10.0431 117.497 12.4548 117.174 14.9312H117.392C119.529 9.58994 121.495 6.91933 123.292 6.91933C124.069 6.91933 124.457 7.29969 124.457 8.06041C123.696 10.3264 123.146 12.56 122.806 14.7612H123C123.535 13.6282 124.073 12.5964 124.615 11.6657C125.157 10.7351 125.792 9.86915 126.521 9.06796C127.249 8.26678 127.905 7.86618 128.487 7.86618C129.264 7.86618 129.653 8.23845 129.653 8.98299C128.811 11.7831 128.39 14.5104 128.39 17.1648C128.39 18.8805 128.649 19.7383 129.167 19.7383C129.345 19.7383 129.523 19.6614 129.701 19.5077C129.879 19.3539 130.001 19.277 130.065 19.277C130.292 19.277 130.284 19.455 130.041 19.8111C129.976 19.9244 129.835 20.0782 129.616 20.2724C129.398 20.4666 129.183 20.5638 128.973 20.5638C128.342 20.5638 127.852 20.1227 127.504 19.2406C127.156 18.3585 126.982 17.2133 126.982 15.8052C126.982 13.3288 127.241 11.1519 127.759 9.27433C127.791 9.16103 127.751 9.10438 127.638 9.10438C127.54 9.12056 127.443 9.16912 127.346 9.25005C126.424 10.0431 125.396 11.512 124.263 13.6566C123.13 15.8012 122.563 17.0677 122.563 17.4561C122.563 17.6504 122.434 17.7475 122.175 17.7475C121.706 17.7475 121.471 17.1081 121.471 15.8295Z" fill="white"/>
<path d="M14.8412 1.01798L29.5905 26.5619L30.1897 25.5203H0.69112L1.29031 26.5619L16.035 1.01798C16.1195 0.860157 16.1395 0.675701 16.0908 0.503432C16.0421 0.331162 15.9284 0.184513 15.7737 0.0943424C15.6191 0.00417185 15.4355 -0.0224884 15.2615 0.0199726C15.0876 0.0624336 14.937 0.170704 14.8412 0.322001L0.0919291 25.9074C0.0315613 26.0129 -0.00013284 26.1324 4.18487e-07 26.2539C0.000133677 26.3754 0.0320896 26.4948 0.0926886 26.6002C0.153288 26.7055 0.240417 26.7932 0.345407 26.8544C0.450397 26.9156 0.569588 26.9483 0.69112 26.9491H30.1897C30.3105 26.9467 30.4285 26.9129 30.5322 26.851C30.636 26.7891 30.7218 26.7014 30.7813 26.5963C30.8408 26.4912 30.872 26.3724 30.8717 26.2516C30.8714 26.1309 30.8397 26.0123 30.7797 25.9074L16.0304 0.363484C15.9276 0.240219 15.7852 0.156548 15.6275 0.126816C15.4698 0.0970848 15.3066 0.123145 15.166 0.200529C15.0254 0.277912 14.9161 0.401799 14.8569 0.550946C14.7976 0.700093 14.7921 0.86521 14.8412 1.01798Z" fill="white"/>
<path d="M27.8161 1.01786L42.5654 26.5618L43.1646 25.5202H13.666L14.2652 26.5618L29.0099 1.01786C29.0944 0.860035 29.1144 0.675579 29.0657 0.50331C29.0169 0.33104 28.9033 0.184391 28.7486 0.0942203C28.594 0.00404978 28.4103 -0.0226105 28.2364 0.0198505C28.0625 0.0623115 27.9118 0.170582 27.8161 0.321879L13.0714 25.9073C13.0111 26.0128 12.9794 26.1323 12.9795 26.2538C12.9796 26.3753 13.0116 26.4947 13.0722 26.6001C13.1328 26.7054 13.2199 26.793 13.3249 26.8543C13.4299 26.9155 13.5491 26.9481 13.6706 26.949H43.1692C43.29 26.9466 43.408 26.9128 43.5117 26.8509C43.6155 26.789 43.7013 26.7012 43.7608 26.5961C43.8203 26.4911 43.8515 26.3723 43.8512 26.2515C43.8509 26.1307 43.8192 26.0121 43.7592 25.9073L29.0099 0.363362C28.9081 0.236827 28.7651 0.150154 28.6058 0.118537C28.4465 0.0869196 28.2812 0.112376 28.1388 0.190443C27.9964 0.268509 27.886 0.394204 27.827 0.545493C27.768 0.696782 27.7642 0.864011 27.8161 1.01786Z" fill="white"/>
</svg>
