<svg width="131" height="27" viewBox="0 0 131 27" fill="none" xmlns="http://www.w3.org/2000/svg">
<path d="M52 5.79193C52 5.34047 51.7761 4.97449 51.5 4.97449C51.2239 4.97449 51 5.34047 51 5.79193V21.157C51 21.6085 51.2239 21.9745 51.5 21.9745C51.7761 21.9745 52 21.6085 52 21.157V5.79193Z" fill="#240046"/>
<path d="M60.2024 3.2533C60.0891 3.52845 60.0324 3.77124 60.0324 3.98165C60.0324 4.19206 60.0972 4.29727 60.2267 4.29727C60.1943 4.52386 60.0163 4.63716 59.6925 4.63716C59.3041 4.63716 59.1099 4.35392 59.1099 3.78742C59.1099 3.22093 59.4255 2.6868 60.0567 2.18505C60.7041 1.6833 61.5337 1.43242 62.5452 1.43242C63.5568 1.43242 64.3985 1.80874 65.0702 2.56136C65.7419 3.31399 66.2032 4.23252 66.4541 5.31696C66.7049 6.40139 66.8304 7.64768 66.8304 9.05582C66.8304 11.9854 66.3043 15.3763 65.2523 19.2284C65.1875 19.4227 65.2523 19.5198 65.4465 19.5198C65.5922 19.5198 65.7379 19.455 65.8835 19.3256C67.583 17.7717 69.1935 15.1173 70.7149 11.3623C72.2364 7.60721 72.9971 4.5967 72.9971 2.33072C72.9971 1.32722 72.7786 0.825463 72.3416 0.825463C72.3901 0.598865 72.5115 0.408684 72.7057 0.254922C72.9 0.101159 73.1266 0.0242777 73.3855 0.0242777C74.0977 0.0242777 74.4538 0.631236 74.4538 1.84515C74.4538 3.59319 73.9116 5.95224 72.8271 8.92229C71.7427 11.8923 70.3993 14.5751 68.7969 16.9706C67.1946 19.366 65.7783 20.5638 64.5482 20.5638C63.7066 20.5638 63.2857 20.1591 63.2857 19.3498C63.7389 18.0064 64.1598 16.1653 64.5482 13.8265C64.9367 11.4877 65.1309 9.49283 65.1309 7.8419C65.1309 3.95737 64.1598 2.0151 62.2175 2.0151C61.2302 2.0151 60.5585 2.42783 60.2024 3.2533ZM75.0365 16.7278C75.0365 14.3323 75.2833 12.1958 75.7769 10.3183C76.2706 8.44077 76.8978 7.50201 77.6585 7.50201C78.0308 7.50201 78.2169 7.70433 78.2169 8.10897C78.0551 8.52979 77.8527 9.08819 77.61 9.78417C77.3672 10.4802 77.0475 11.7386 76.651 13.5595C76.2544 15.3803 76.0561 17.0029 76.0561 18.4273C76.0561 18.6539 75.9348 18.7672 75.692 18.7672C75.255 18.7672 75.0365 18.0874 75.0365 16.7278ZM78.5811 4.80711L78.2898 5.21984C77.9499 5.21984 77.7799 4.89613 77.7799 4.24871C77.7799 3.86026 77.8851 3.45157 78.0955 3.02265C78.3059 2.59374 78.6054 2.37928 78.9938 2.37928C79.3175 2.37928 79.4794 2.56541 79.4794 2.93768C79.4794 3.30995 79.18 3.93309 78.5811 4.80711ZM81.7373 18.7914C80.406 18.7914 79.7404 17.7475 79.7404 15.6595C79.7404 14.4132 80.0499 13.0456 80.669 11.5565C81.5228 9.46855 82.6477 8.04422 84.0437 7.2835C84.6426 6.95979 85.201 6.79794 85.7189 6.79794C86.2369 6.79794 86.6435 6.91123 86.9389 7.13783C87.2424 7.36443 87.4346 7.59103 87.5155 7.81763L87.6551 8.13325C87.6106 8.4084 87.473 8.54598 87.2424 8.54598C86.9875 8.54598 86.8398 8.48528 86.7993 8.36389C86.7589 8.2425 86.7123 8.13729 86.6597 8.04827C86.6152 7.95925 86.5039 7.83786 86.3259 7.6841C86.1438 7.53033 85.9415 7.45345 85.7189 7.45345C84.6669 7.45345 83.7119 8.40031 82.8541 10.294C81.8789 12.4791 81.3913 14.5346 81.3913 16.4607C81.3913 17.4319 81.5855 17.9174 81.974 17.9174C82.5081 17.9174 83.372 16.9827 84.5657 15.1133C85.7553 13.2438 86.8276 11.3299 87.7826 9.37144C88.2682 8.38412 88.776 7.89046 89.3061 7.89046C89.65 7.89046 89.822 8.08469 89.822 8.47314C89.7572 8.58644 89.6581 8.77257 89.5246 9.03154C89.3991 9.29051 89.1665 10.031 88.8266 11.253C88.4867 12.475 88.1791 13.8751 87.904 15.4532C87.6248 17.0313 87.3901 18.2654 87.1999 19.1556C88.426 19.366 89.1381 19.9002 89.3364 20.758C89.3688 20.9037 89.385 21.1019 89.385 21.3528C89.385 21.6037 89.2858 21.8222 89.0875 22.0083C88.8974 22.1945 88.7294 22.2875 88.5838 22.2875C88.6121 22.1742 88.6202 21.9759 88.6081 21.6927C88.5919 21.4095 88.5393 21.1707 88.4502 20.9765C88.3612 20.7823 88.1953 20.5799 87.9525 20.3695C87.7098 20.1591 87.3941 20.0054 87.0057 19.9082C86.5039 21.8829 85.7816 23.5095 84.8388 24.7882C83.7706 26.2287 82.3321 26.949 80.5234 26.949C79.1921 26.949 78.31 26.4796 77.877 25.5408C77.8608 25.4923 77.8527 25.4518 77.8527 25.4194C77.8527 25.3223 77.9397 25.2535 78.1137 25.2131C78.2958 25.1726 78.4192 25.2333 78.484 25.3951C78.7713 26.0588 79.4511 26.3906 80.5234 26.3906C81.9801 26.3906 83.1131 25.7027 83.9223 24.3269C84.6466 23.113 85.203 21.5996 85.5915 19.7868C82.6821 19.8516 80.4343 20.9684 78.8482 23.1373C78.751 23.2829 78.5973 23.3072 78.3869 23.2101C78.2695 23.1454 78.2372 23.0644 78.2898 22.9673C78.9817 21.9153 79.9508 21.021 81.1971 20.2846C82.4474 19.5481 83.9628 19.1475 85.7432 19.0828C85.9172 18.2735 86.075 17.4197 86.2166 16.5214C86.3502 15.6231 86.4675 14.915 86.5687 14.3971C86.6658 13.8791 86.7305 13.5069 86.7629 13.2803H86.4958C84.3593 16.9544 82.7732 18.7914 81.7373 18.7914ZM104.966 6.31237C104.966 6.37711 104.897 6.41757 104.759 6.43376C104.622 6.44995 104.484 6.42567 104.346 6.36093C104.209 6.29618 104.14 6.20716 104.14 6.09386C104.14 4.44294 104.326 3.11167 104.699 2.10008C105.071 1.08848 105.556 0.58268 106.155 0.58268C106.317 0.58268 106.455 0.63933 106.568 0.752629C106.681 0.865928 106.738 1.01969 106.738 1.21392C105.993 1.95845 105.467 3.04289 105.16 4.46721C105.03 5.04989 104.966 5.66495 104.966 6.31237ZM103.509 1.16536C101.275 1.16536 99.2764 2.4683 97.5121 5.07417C95.9907 7.32397 94.9953 9.94603 94.5259 12.9404C94.364 13.9277 94.2831 14.8341 94.2831 15.6595C94.2831 17.2457 94.5745 18.5203 95.1571 19.4834C95.7398 20.4464 96.5572 20.9279 97.6092 20.9279C99.0336 20.9279 100.247 20.1106 101.251 18.4758C101.931 17.3752 102.271 16.4041 102.271 15.5624C102.271 15.1902 102.174 15.004 101.979 15.004C102.076 14.6317 102.319 14.4456 102.708 14.4456C103.161 14.4456 103.387 14.7693 103.387 15.4167C103.387 16.6307 102.853 17.9255 101.785 19.3013C100.506 20.936 99.0093 21.7534 97.2936 21.7534C95.1409 21.7534 93.6842 20.6771 92.9235 18.5244C92.5513 17.5209 92.3651 16.3838 92.3651 15.1133C92.3651 13.8427 92.5755 12.4224 92.9964 10.8524C93.8056 7.74479 95.1693 5.16319 97.0873 3.10763C99.0053 1.05206 101.13 0.0161856 103.46 0C103.784 0 104.019 0.105205 104.164 0.315618C104.31 0.52603 104.375 0.72835 104.359 0.922576V1.23819C104.229 1.18964 103.946 1.16536 103.509 1.16536ZM108.559 19.0099C106.568 19.0099 105.573 17.6423 105.573 14.9069C105.573 13.3693 105.961 11.8316 106.738 10.294C107.725 8.35175 108.899 7.38062 110.258 7.38062C110.452 7.38062 110.614 7.42917 110.744 7.52629C110.873 7.6234 110.962 7.76907 111.011 7.9633C109.991 7.9633 109.109 8.78067 108.365 10.4154C107.62 12.0502 107.248 13.6606 107.248 15.2468C107.248 17.1729 107.774 18.1359 108.826 18.1359C109.425 18.1359 110.048 17.6787 110.695 16.7642C111.343 15.8497 111.881 14.6479 112.31 13.1589C112.739 11.6698 112.953 10.1726 112.953 8.66737V8.37603C112.451 8.05232 112.039 7.64768 111.715 7.16211C111.391 6.67654 111.229 6.32046 111.229 6.09386C111.229 5.86727 111.331 5.65281 111.533 5.45049C111.735 5.24817 111.942 5.14701 112.152 5.14701C112.459 5.14701 112.759 5.42216 113.05 5.97247C113.342 6.52278 113.544 7.14593 113.657 7.8419C114.159 8.1818 114.6 8.35175 114.98 8.35175C115.361 8.35175 115.664 8.28701 115.891 8.15752C115.891 8.38412 115.81 8.58644 115.648 8.76448C115.486 8.94252 115.235 9.03154 114.895 9.03154C114.556 9.03154 114.167 8.95062 113.73 8.78876C113.714 10.3426 113.479 11.9045 113.026 13.4745C112.573 15.0445 111.942 16.3596 111.132 17.4197C110.323 18.4799 109.465 19.0099 108.559 19.0099ZM121.572 15.8295C121.572 13.8387 121.936 11.3218 122.664 8.27892C122.713 8.11706 122.664 8.04422 122.519 8.06041C122.406 8.0766 122.3 8.12515 122.203 8.20608C121.491 8.80495 120.706 9.91366 119.848 11.5322C118.99 13.1508 118.302 14.6277 117.785 15.963C117.267 17.2983 117.008 18.0793 117.008 18.3059C117.008 18.5001 116.886 18.5972 116.643 18.5972C116.158 18.5972 115.915 17.9579 115.915 16.6792C115.915 14.2514 116.158 12.0623 116.643 10.1119C117.129 8.16157 117.72 7.18639 118.416 7.18639C118.723 7.18639 118.877 7.35634 118.877 7.69623C118.133 10.0431 117.598 12.4548 117.275 14.9312H117.493C119.63 9.58994 121.596 6.91933 123.393 6.91933C124.17 6.91933 124.558 7.29969 124.558 8.06041C123.797 10.3264 123.247 12.56 122.907 14.7612H123.102C123.636 13.6282 124.174 12.5964 124.716 11.6657C125.258 10.7351 125.894 9.86915 126.622 9.06796C127.35 8.26678 128.006 7.86618 128.588 7.86618C129.365 7.86618 129.754 8.23845 129.754 8.98299C128.912 11.7831 128.491 14.5104 128.491 17.1648C128.491 18.8805 128.75 19.7383 129.268 19.7383C129.446 19.7383 129.624 19.6614 129.802 19.5077C129.98 19.3539 130.102 19.277 130.167 19.277C130.393 19.277 130.385 19.455 130.142 19.8111C130.077 19.9244 129.936 20.0782 129.717 20.2724C129.499 20.4666 129.284 20.5638 129.074 20.5638C128.443 20.5638 127.953 20.1227 127.605 19.2406C127.257 18.3585 127.083 17.2133 127.083 15.8052C127.083 13.3288 127.342 11.1519 127.86 9.27433C127.892 9.16103 127.852 9.10438 127.739 9.10438C127.642 9.12056 127.544 9.16912 127.447 9.25005C126.525 10.0431 125.497 11.512 124.364 13.6566C123.231 15.8012 122.664 17.0677 122.664 17.4561C122.664 17.6504 122.535 17.7475 122.276 17.7475C121.807 17.7475 121.572 17.1081 121.572 15.8295Z" fill="#240046"/>
<path d="M14.9423 1.01798L29.6916 26.5619L30.2908 25.5203H0.792194L1.39138 26.5619L16.1361 1.01798C16.2206 0.860157 16.2406 0.675701 16.1919 0.503432C16.1431 0.331162 16.0295 0.184513 15.8748 0.0943424C15.7201 0.00417185 15.5365 -0.0224884 15.3626 0.0199726C15.1887 0.0624336 15.038 0.170704 14.9423 0.322001L0.193003 25.9074C0.132636 26.0129 0.100941 26.1324 0.101075 26.2539C0.101208 26.3754 0.133164 26.4948 0.193763 26.6002C0.254362 26.7055 0.341491 26.7932 0.446481 26.8544C0.551472 26.9156 0.670662 26.9483 0.792194 26.9491H30.2908C30.4116 26.9467 30.5296 26.9129 30.6333 26.851C30.737 26.7891 30.8229 26.7014 30.8824 26.5963C30.9419 26.4912 30.9731 26.3724 30.9728 26.2516C30.9725 26.1309 30.9408 26.0123 30.8808 25.9074L16.1315 0.363484C16.0287 0.240219 15.8862 0.156548 15.7285 0.126816C15.5708 0.0970848 15.4077 0.123145 15.2671 0.200529C15.1265 0.277912 15.0172 0.401799 14.9579 0.550946C14.8987 0.700093 14.8932 0.86521 14.9423 1.01798Z" fill="#240046"/>
<path d="M27.9172 1.01786L42.6665 26.5618L43.2657 25.5202H13.7671L14.3663 26.5618L29.111 1.01786C29.1955 0.860035 29.2155 0.675579 29.1667 0.50331C29.118 0.33104 29.0044 0.184391 28.8497 0.0942203C28.695 0.00404978 28.5114 -0.0226105 28.3375 0.0198505C28.1636 0.0623115 28.0129 0.170582 27.9172 0.321879L13.1725 25.9073C13.1121 26.0128 13.0804 26.1323 13.0806 26.2538C13.0807 26.3753 13.1127 26.4947 13.1733 26.6001C13.2339 26.7054 13.321 26.793 13.426 26.8543C13.531 26.9155 13.6502 26.9481 13.7717 26.949H43.2703C43.391 26.9466 43.5091 26.9128 43.6128 26.8509C43.7165 26.789 43.8024 26.7012 43.8619 26.5961C43.9214 26.4911 43.9526 26.3723 43.9523 26.2515C43.952 26.1307 43.9203 26.0121 43.8603 25.9073L29.111 0.363362C29.0092 0.236827 28.8661 0.150154 28.7068 0.118537C28.5476 0.0869196 28.3822 0.112376 28.2399 0.190443C28.0975 0.268509 27.9871 0.394204 27.9281 0.545493C27.8691 0.696782 27.8652 0.864011 27.9172 1.01786Z" fill="#240046"/>
</svg>
