<svg width="217" height="45" viewBox="0 0 217 45" fill="none" xmlns="http://www.w3.org/2000/svg">
<path d="M99.8255 5.43243C99.6362 5.89189 99.5415 6.2973 99.5415 6.64865C99.5415 7 99.6497 7.17568 99.866 7.17568C99.8119 7.55405 99.5145 7.74324 98.9736 7.74324C98.3245 7.74324 98 7.27027 98 6.32432C98 5.37838 98.5274 4.48649 99.5821 3.64865C100.664 2.81081 102.05 2.39189 103.74 2.39189C105.43 2.39189 106.837 3.02027 107.959 4.27703C109.081 5.53378 109.852 7.06757 110.271 8.87838C110.69 10.6892 110.9 12.7703 110.9 15.1216C110.9 20.0135 110.021 25.6757 108.263 32.1081C108.155 32.4324 108.263 32.5946 108.588 32.5946C108.831 32.5946 109.074 32.4865 109.318 32.2703C112.157 29.6757 114.848 25.2432 117.39 18.973C119.933 12.7027 121.204 7.67567 121.204 3.89189C121.204 2.21621 120.839 1.37838 120.108 1.37838C120.189 0.999999 120.392 0.682431 120.717 0.425674C121.041 0.168917 121.42 0.0405395 121.853 0.0405395C123.043 0.0405395 123.638 1.05405 123.638 3.08108C123.638 6 122.732 9.93919 120.92 14.8986C119.108 19.8581 116.863 24.3378 114.186 28.3378C111.508 32.3378 109.142 34.3378 107.087 34.3378C105.68 34.3378 104.977 33.6622 104.977 32.3108C105.735 30.0676 106.438 26.9932 107.087 23.0878C107.736 19.1824 108.06 15.8514 108.06 13.0946C108.06 6.60811 106.438 3.36486 103.192 3.36486C101.543 3.36486 100.42 4.05405 99.8255 5.43243ZM124.611 27.9324C124.611 23.9324 125.024 20.3649 125.848 17.2297C126.673 14.0946 127.721 12.527 128.992 12.527C129.614 12.527 129.925 12.8649 129.925 13.5405C129.655 14.2432 129.317 15.1757 128.911 16.3378C128.505 17.5 127.971 19.6014 127.309 22.6419C126.646 25.6824 126.315 28.3919 126.315 30.7703C126.315 31.1486 126.112 31.3378 125.706 31.3378C124.976 31.3378 124.611 30.2027 124.611 27.9324ZM130.534 8.02703L130.047 8.71622C129.479 8.71622 129.195 8.17568 129.195 7.0946C129.195 6.44595 129.371 5.76351 129.722 5.0473C130.074 4.33108 130.574 3.97297 131.223 3.97297C131.764 3.97297 132.035 4.28378 132.035 4.9054C132.035 5.52703 131.534 6.56757 130.534 8.02703ZM135.807 31.3784C133.583 31.3784 132.471 29.6351 132.471 26.1487C132.471 24.0676 132.988 21.7838 134.022 19.2973C135.449 15.8108 137.329 13.4324 139.661 12.1622C140.662 11.6216 141.595 11.3514 142.46 11.3514C143.325 11.3514 144.005 11.5405 144.499 11.9189C145.006 12.2973 145.327 12.6757 145.462 13.0541L145.695 13.5811C145.621 14.0405 145.391 14.2703 145.006 14.2703C144.58 14.2703 144.333 14.1689 144.265 13.9662C144.198 13.7635 144.12 13.5878 144.032 13.4392C143.958 13.2905 143.772 13.0878 143.474 12.8311C143.17 12.5743 142.832 12.4459 142.46 12.4459C140.702 12.4459 139.107 14.027 137.673 17.1892C136.044 20.8378 135.229 24.2703 135.229 27.4865C135.229 29.1081 135.554 29.9189 136.203 29.9189C137.095 29.9189 138.539 28.3581 140.533 25.2365C142.521 22.1149 144.313 18.9189 145.908 15.6486C146.719 14 147.568 13.1757 148.454 13.1757C149.028 13.1757 149.316 13.5 149.316 14.1486C149.208 14.3378 149.042 14.6486 148.819 15.0811C148.609 15.5135 148.22 16.75 147.652 18.7905C147.085 20.8311 146.571 23.1689 146.111 25.8041C145.644 28.4392 145.252 30.5 144.935 31.9865C146.983 32.3378 148.173 33.2297 148.504 34.6622C148.558 34.9054 148.586 35.2365 148.586 35.6554C148.586 36.0743 148.42 36.4392 148.089 36.75C147.771 37.0608 147.49 37.2162 147.247 37.2162C147.294 37.027 147.308 36.6959 147.287 36.223C147.26 35.75 147.172 35.3513 147.024 35.027C146.875 34.7027 146.598 34.3649 146.192 34.0135C145.786 33.6622 145.259 33.4054 144.61 33.2432C143.772 36.5405 142.565 39.2568 140.99 41.3919C139.205 43.7973 136.801 45 133.779 45C131.555 45 130.081 44.2162 129.357 42.6486C129.33 42.5676 129.317 42.5 129.317 42.4459C129.317 42.2838 129.462 42.1689 129.753 42.1014C130.057 42.0338 130.263 42.1351 130.371 42.4054C130.852 43.5135 131.987 44.0676 133.779 44.0676C136.213 44.0676 138.106 42.9189 139.458 40.6216C140.668 38.5946 141.598 36.0676 142.247 33.0405C137.386 33.1486 133.63 35.0135 130.98 38.6351C130.818 38.8784 130.561 38.9189 130.209 38.7568C130.013 38.6486 129.959 38.5135 130.047 38.3514C131.203 36.5946 132.822 35.1013 134.905 33.8716C136.994 32.6419 139.526 31.973 142.501 31.8649C142.791 30.5135 143.055 29.0878 143.292 27.5878C143.515 26.0878 143.711 24.9054 143.88 24.0405C144.042 23.1757 144.15 22.5541 144.204 22.1757H143.758C140.188 28.3108 137.538 31.3784 135.807 31.3784ZM174.619 10.5405C174.619 10.6486 174.504 10.7162 174.274 10.7432C174.044 10.7703 173.814 10.7297 173.584 10.6216C173.354 10.5135 173.239 10.3649 173.239 10.1757C173.239 7.41892 173.55 5.19595 174.172 3.50676C174.794 1.81757 175.606 0.972972 176.606 0.972972C176.877 0.972972 177.107 1.06757 177.296 1.25676C177.485 1.44595 177.58 1.7027 177.58 2.02703C176.336 3.27027 175.457 5.08108 174.943 7.45946C174.727 8.43243 174.619 9.45946 174.619 10.5405ZM172.185 1.94594C168.453 1.94594 165.113 4.12162 162.165 8.47297C159.623 12.2297 157.96 16.6081 157.175 21.6081C156.905 23.2568 156.77 24.7703 156.77 26.1487C156.77 28.7973 157.256 30.9257 158.23 32.5338C159.204 34.1419 160.569 34.9459 162.327 34.9459C164.707 34.9459 166.735 33.5811 168.412 30.8514C169.548 29.0135 170.116 27.3919 170.116 25.9865C170.116 25.3649 169.954 25.0541 169.629 25.0541C169.791 24.4324 170.197 24.1216 170.846 24.1216C171.603 24.1216 171.982 24.6622 171.982 25.7432C171.982 27.7703 171.089 29.9324 169.304 32.2297C167.168 34.9595 164.666 36.3243 161.8 36.3243C158.203 36.3243 155.769 34.527 154.498 30.9324C153.876 29.2568 153.565 27.3581 153.565 25.2365C153.565 23.1149 153.917 20.7432 154.62 18.1216C155.972 12.9324 158.25 8.62162 161.455 5.18919C164.66 1.75676 168.209 0.027027 172.104 0C172.644 0 173.037 0.175674 173.28 0.527026C173.523 0.878377 173.631 1.21621 173.604 1.54054V2.06757C173.388 1.98649 172.915 1.94594 172.185 1.94594ZM180.622 31.7432C177.296 31.7432 175.633 29.4595 175.633 24.8919C175.633 22.3243 176.282 19.7568 177.58 17.1892C179.23 13.9459 181.19 12.3243 183.462 12.3243C183.786 12.3243 184.057 12.4054 184.273 12.5676C184.49 12.7297 184.638 12.973 184.719 13.2973C183.016 13.2973 181.542 14.6622 180.298 17.3919C179.054 20.1216 178.432 22.8108 178.432 25.4595C178.432 28.6757 179.311 30.2838 181.069 30.2838C182.069 30.2838 183.11 29.5203 184.192 27.9932C185.274 26.4662 186.173 24.4595 186.89 21.973C187.606 19.4865 187.965 16.9865 187.965 14.473V13.9865C187.126 13.4459 186.437 12.7703 185.896 11.9595C185.355 11.1486 185.085 10.5541 185.085 10.1757C185.085 9.7973 185.254 9.43919 185.592 9.10135C185.93 8.76351 186.274 8.59459 186.626 8.59459C187.14 8.59459 187.64 9.05405 188.127 9.97297C188.614 10.8919 188.952 11.9324 189.141 13.0946C189.979 13.6622 190.716 13.9459 191.352 13.9459C191.987 13.9459 192.495 13.8378 192.873 13.6216C192.873 14 192.738 14.3378 192.468 14.6351C192.197 14.9324 191.778 15.0811 191.21 15.0811C190.642 15.0811 189.993 14.9459 189.263 14.6757C189.236 17.2703 188.844 19.8784 188.086 22.5C187.329 25.1216 186.274 27.3176 184.922 29.0878C183.57 30.8581 182.137 31.7432 180.622 31.7432ZM202.366 26.4324C202.366 23.1081 202.974 18.9054 204.191 13.8243C204.272 13.5541 204.191 13.4324 203.948 13.4595C203.758 13.4865 203.583 13.5676 203.42 13.7027C202.23 14.7027 200.919 16.5541 199.485 19.2568C198.052 21.9595 196.903 24.4257 196.037 26.6554C195.172 28.8851 194.739 30.1892 194.739 30.5676C194.739 30.8919 194.536 31.0541 194.131 31.0541C193.319 31.0541 192.914 29.9865 192.914 27.8514C192.914 23.7973 193.319 20.1419 194.131 16.8851C194.942 13.6284 195.929 12 197.092 12C197.606 12 197.863 12.2838 197.863 12.8513C196.619 16.7703 195.726 20.7973 195.185 24.9324H195.551C199.12 16.0135 202.406 11.5541 205.408 11.5541C206.706 11.5541 207.355 12.1892 207.355 13.4595C206.084 17.2432 205.165 20.973 204.597 24.6486H204.921C205.814 22.7568 206.713 21.0338 207.619 19.4797C208.525 17.9257 209.586 16.4797 210.803 15.1419C212.02 13.8041 213.115 13.1351 214.089 13.1351C215.387 13.1351 216.036 13.7568 216.036 15C214.63 19.6757 213.927 24.2297 213.927 28.6622C213.927 31.527 214.359 32.9595 215.225 32.9595C215.522 32.9595 215.82 32.8311 216.117 32.5743C216.415 32.3176 216.618 32.1892 216.726 32.1892C217.104 32.1892 217.091 32.4865 216.685 33.0811C216.577 33.2703 216.34 33.527 215.975 33.8514C215.61 34.1757 215.252 34.3378 214.9 34.3378C213.846 34.3378 213.028 33.6014 212.446 32.1284C211.865 30.6554 211.574 28.7432 211.574 26.3919C211.574 22.2568 212.007 18.6216 212.872 15.4865C212.926 15.2973 212.859 15.2027 212.669 15.2027C212.507 15.2297 212.345 15.3108 212.182 15.4459C210.641 16.7703 208.924 19.223 207.031 22.8041C205.138 26.3851 204.191 28.5 204.191 29.1486C204.191 29.473 203.975 29.6351 203.542 29.6351C202.758 29.6351 202.366 28.5676 202.366 26.4324Z" fill="#240046"/>
<path d="M45.9907 1.69945L70.8343 44.3535L71.8435 42.6141H22.1564L23.1656 44.3535L48.0015 1.69945C48.1438 1.43591 48.1775 1.1279 48.0954 0.840238C48.0133 0.552577 47.8219 0.307697 47.5614 0.157128C47.3008 0.00655861 46.9916 -0.0379594 46.6986 0.0329431C46.4057 0.103846 46.1519 0.284639 45.9907 0.537279L21.1548 43.2606C21.0532 43.4367 20.9998 43.6362 21 43.8391C21.0002 44.0421 21.0541 44.2414 21.1561 44.4173C21.2582 44.5932 21.405 44.7396 21.5818 44.8418C21.7586 44.944 21.9594 44.9986 22.1641 45H71.8513C72.0547 44.9959 72.2535 44.9395 72.4282 44.8362C72.6029 44.7329 72.7475 44.5863 72.8478 44.4108C72.948 44.2353 73.0005 44.037 73 43.8353C72.9995 43.6337 72.9461 43.4356 72.845 43.2606L48.0015 0.606548C47.83 0.395257 47.589 0.250528 47.3208 0.197733C47.0525 0.144937 46.774 0.187445 46.5342 0.317803C46.2943 0.44816 46.1084 0.658049 46.009 0.910676C45.9097 1.1633 45.9032 1.44255 45.9907 1.69945Z" fill="#240046"/>
<path d="M24.5177 1.69945L48.8835 44.3535L49.8734 42.6141H1.14173L2.13159 44.3535L26.4898 1.69945C26.6294 1.43591 26.6624 1.1279 26.5819 0.840238C26.5014 0.552577 26.3137 0.307697 26.0582 0.157128C25.8027 0.00655861 25.4994 -0.0379594 25.212 0.0329431C24.9247 0.103846 24.6758 0.284639 24.5177 0.537279L0.151867 43.2606C0.0521392 43.4367 -0.000219452 43.6362 6.9134e-07 43.8391C0.000220835 44.0421 0.0530119 44.2414 0.153121 44.4173C0.253231 44.5932 0.397168 44.7396 0.570612 44.8418C0.744055 44.944 0.940958 44.9986 1.14173 45H49.8734C50.0729 44.9959 50.2679 44.9395 50.4392 44.8362C50.6105 44.7329 50.7524 44.5863 50.8507 44.4108C50.949 44.2353 51.0005 44.037 51 43.8353C50.9995 43.6337 50.9472 43.4356 50.848 43.2606L26.4822 0.606548C26.3124 0.400717 26.0771 0.261001 25.8165 0.211354C25.556 0.161707 25.2865 0.205223 25.0542 0.334441C24.822 0.463659 24.6414 0.670528 24.5435 0.919578C24.4456 1.16863 24.4365 1.44435 24.5177 1.69945Z" fill="#240046"/>
</svg>
